<?xml version="1.0" standalone="no"?>
<!DOCTYPE svg PUBLIC "-//W3C//DTD SVG 20010904//EN"
 "http://www.w3.org/TR/2001/REC-SVG-20010904/DTD/svg10.dtd">
<svg version="1.0" xmlns="http://www.w3.org/2000/svg"
 width="1767.000000pt" height="697.000000pt" viewBox="0 0 1767.000000 697.000000"
 preserveAspectRatio="xMidYMid meet">
<metadata>
Created by potrace 1.16, written by Peter Selinger 2001-2019
</metadata>
<g transform="translate(0.000000,697.000000) scale(0.100000,-0.100000)"
fill="#000000" stroke="none">
<path d="M2145 6088 c-2 -7 -6 -72 -7 -144 l-3 -130 30 -20 c58 -38 58 -110 0
-148 l-30 -20 4 -135 c2 -88 7 -139 15 -143 6 -4 218 -8 471 -8 346 0 464 3
473 12 8 8 12 54 12 142 l0 131 -35 28 c-49 39 -49 86 0 133 l36 33 -3 138 -3
138 -478 3 c-377 2 -478 0 -482 -10z"/>
<path d="M3137 6093 c-11 -10 -8 -283 2 -283 5 0 23 -12 40 -26 53 -44 36
-128 -29 -149 -19 -6 -20 -14 -20 -139 0 -89 4 -136 12 -144 17 -17 2999 -17
3016 0 8 8 12 55 12 144 l0 133 -27 13 c-68 33 -65 132 4 159 23 9 24 10 21
151 l-3 143 -1511 3 c-831 1 -1514 -1 -1517 -5z"/>
<path d="M6196 6078 c-3 -13 -6 -77 -6 -144 0 -119 0 -121 25 -132 14 -6 33
-27 42 -47 16 -33 16 -37 0 -70 -9 -20 -28 -40 -42 -45 -25 -9 -25 -10 -25
-139 0 -104 3 -133 16 -145 14 -14 73 -16 502 -16 268 0 492 4 498 8 8 4 13
55 15 143 l4 135 -30 20 c-58 38 -54 123 9 152 21 11 27 19 22 35 -3 12 -6 77
-6 145 l0 122 -509 0 -509 0 -6 -22z"/>
<path d="M7249 5970 c-1 -71 -2 -135 -3 -142 -1 -6 13 -19 29 -28 17 -9 36
-27 43 -41 24 -45 -4 -111 -51 -123 -21 -5 -22 -9 -19 -138 2 -73 5 -139 7
-145 7 -20 788 -19 804 1 9 11 11 61 7 183 -3 92 -4 179 -4 193 1 14 2 102 2
195 l1 170 -407 3 -408 2 -1 -130z m533 -242 c-8 -8 -8 -17 -1 -30 6 -11 8
-22 5 -25 -9 -10 -36 18 -36 38 0 11 -7 19 -15 19 -9 0 -15 -9 -15 -25 0 -19
-5 -25 -22 -24 -13 1 -30 -1 -39 -5 -10 -4 -23 -1 -32 8 -13 14 -16 14 -28 0
-7 -8 -18 -13 -26 -10 -7 3 -13 -1 -13 -9 0 -8 -4 -15 -10 -15 -5 0 -10 22
-10 48 0 48 1 49 31 50 19 0 32 -5 36 -15 5 -13 7 -13 15 1 10 18 43 22 53 6
4 -6 12 -7 18 -3 7 4 23 9 37 11 14 2 26 7 28 13 2 5 11 2 19 -7 11 -11 13
-18 5 -26z"/>
<path d="M8225 6088 c-3 -7 -4 -177 -2 -378 l2 -365 590 0 590 0 3 378 2 377
-590 0 c-463 0 -592 -3 -595 -12z"/>
<path d="M2153 5313 c-10 -3 -13 -43 -13 -149 l0 -144 218 2 217 3 3 134 c1
74 -2 139 -7 144 -9 9 -397 19 -418 10z"/>
<path d="M2627 5312 c-15 -3 -17 -21 -17 -148 l0 -144 248 2 247 3 3 138 c2
109 0 138 -11 143 -15 5 -443 11 -470 6z m84 -74 c11 -30 13 -31 16 -11 4 19
10 22 44 19 28 -2 39 1 39 10 0 18 8 18 26 -1 20 -20 34 -19 35 3 1 16 2 16 6
-1 4 -15 7 -16 20 -6 9 8 17 9 21 3 9 -12 112 -12 112 -1 0 5 6 7 12 5 15 -5
20 -68 6 -68 -5 0 -12 9 -15 20 -3 11 -12 20 -19 20 -17 0 -18 -17 -1 -23 6
-2 8 -8 4 -13 -4 -4 -17 -3 -27 4 -11 7 -20 8 -20 3 0 -5 -16 -9 -35 -9 -19 0
-35 4 -35 10 0 5 -6 6 -12 1 -28 -17 -48 -13 -49 10 l-2 22 -4 -22 c-5 -28
-23 -30 -23 -3 0 11 -7 20 -15 20 -8 0 -15 -4 -15 -10 0 -5 5 -10 10 -10 6 0
10 -4 10 -10 0 -19 -27 -10 -38 13 l-11 22 -7 -22 c-7 -24 -39 -31 -47 -10 -3
9 -8 9 -21 -2 -24 -20 -29 -8 -12 33 19 45 30 45 47 4z"/>
<path d="M3142 5308 c-14 -14 -17 -255 -4 -276 7 -9 77 -12 318 -10 l309 3 3
139 c2 105 -1 141 -10 148 -22 13 -602 10 -616 -4z"/>
<path d="M3800 5301 c-11 -21 -14 -238 -4 -265 5 -14 41 -16 295 -16 184 0
289 4 289 10 0 5 2 63 4 127 2 65 0 128 -5 141 l-9 22 -279 0 c-267 0 -281 -1
-291 -19z"/>
<path d="M4423 5313 c-10 -3 -13 -43 -13 -149 l0 -144 263 2 262 3 3 134 c2
90 -1 138 -9 147 -9 11 -58 14 -253 13 -132 0 -247 -3 -253 -6z"/>
<path d="M4973 5313 c-10 -3 -13 -43 -13 -149 l0 -144 245 0 245 0 0 144 c0
122 -2 145 -16 150 -19 7 -443 7 -461 -1z"/>
<path d="M5487 5313 c-4 -3 -7 -71 -7 -150 l0 -143 343 2 342 3 3 139 c2 105
-1 141 -10 148 -15 9 -662 11 -671 1z"/>
<path d="M6206 5304 c-13 -12 -16 -40 -16 -137 0 -67 4 -128 8 -135 7 -9 61
-12 238 -10 l229 3 3 134 c2 90 -1 138 -9 147 -18 22 -431 20 -453 -2z"/>
<path d="M6701 5306 c-8 -9 -11 -57 -9 -147 l3 -134 263 -3 262 -2 0 144 c0
122 -2 145 -16 150 -9 3 -123 6 -254 6 -190 0 -240 -3 -249 -14z m124 -166 c3
-11 10 -20 15 -20 5 0 12 9 15 20 8 26 25 26 25 -1 0 -18 3 -19 14 -9 11 8 20
9 33 1 14 -7 23 -5 41 11 l22 21 0 -22 c0 -18 3 -20 19 -12 10 6 21 7 25 4 3
-4 13 2 21 13 13 18 14 18 15 1 0 -11 6 -17 16 -15 12 2 18 -6 21 -25 3 -25 1
-27 -22 -24 -15 2 -31 10 -36 18 -7 12 -9 12 -9 -2 0 -12 -11 -16 -45 -17 -25
0 -45 4 -45 10 0 6 -7 5 -16 -3 -12 -10 -20 -10 -34 -1 -14 9 -20 8 -23 -1 -3
-7 -6 -4 -6 7 -1 16 -3 17 -18 5 -13 -11 -17 -12 -21 -1 -3 10 -8 8 -18 -5
-12 -16 -13 -14 -14 25 0 44 14 57 25 22z"/>
<path d="M7257 5313 c-4 -3 -7 -71 -7 -150 l0 -143 408 2 407 3 3 134 c2 90
-1 138 -9 147 -9 12 -81 14 -404 14 -215 0 -395 -3 -398 -7z"/>
<path d="M8227 5313 c-4 -3 -7 -71 -7 -150 l0 -143 335 0 336 0 -3 148 -3 147
-326 3 c-179 1 -328 -1 -332 -5z"/>
<path d="M8927 5314 c-4 -4 -7 -72 -7 -151 l0 -143 245 0 246 0 -3 148 -3 147
-236 3 c-129 1 -238 -1 -242 -4z"/>
<path d="M3230 4640 l0 -90 45 0 c79 0 115 32 115 101 0 48 -41 79 -106 79
l-54 0 0 -90z"/>
<path d="M8757 4023 c-14 -13 -6 -23 36 -41 56 -26 102 -66 92 -82 -5 -9 -4
-11 3 -6 7 4 25 -13 44 -43 40 -61 63 -68 55 -15 -15 92 -186 232 -230 187z"/>
</g>
</svg>
